<mxfile host="app.diagrams.net" agent="Mozilla/5.0 (Windows NT 10.0; Win64; x64) AppleWebKit/537.36 (KHTML, like Gecko) Chrome/129.0.0.0 Safari/537.36" version="24.7.16">
  <diagram id="C5RBs43oDa-KdzZeNtuy" name="Page-1">
    <mxGraphModel dx="2059" dy="1097" grid="1" gridSize="10" guides="1" tooltips="1" connect="1" arrows="1" fold="1" page="1" pageScale="1" pageWidth="827" pageHeight="1169" background="#ffffff" math="0" shadow="0">
      <root>
        <mxCell id="WIyWlLk6GJQsqaUBKTNV-0" />
        <mxCell id="WIyWlLk6GJQsqaUBKTNV-1" parent="WIyWlLk6GJQsqaUBKTNV-0" />
        <mxCell id="LI9GZYLnp5pJ0-7i5mNz-20" value="" style="endArrow=classic;html=1;rounded=0;entryX=0;entryY=0.5;entryDx=0;entryDy=0;fillColor=#dae8fc;strokeColor=#6c8ebf;strokeWidth=2;edgeStyle=orthogonalEdgeStyle;exitX=0.5;exitY=1;exitDx=0;exitDy=0;" parent="WIyWlLk6GJQsqaUBKTNV-1" source="LI9GZYLnp5pJ0-7i5mNz-4" target="LI9GZYLnp5pJ0-7i5mNz-18" edge="1">
          <mxGeometry width="50" height="50" relative="1" as="geometry">
            <mxPoint x="350" y="790" as="sourcePoint" />
            <mxPoint x="370" y="819" as="targetPoint" />
          </mxGeometry>
        </mxCell>
        <mxCell id="ePSrSVbJTpR8uSZUfsVL-25" style="edgeStyle=orthogonalEdgeStyle;rounded=0;orthogonalLoop=1;jettySize=auto;html=1;exitX=0.5;exitY=1;exitDx=0;exitDy=0;entryX=0.5;entryY=0;entryDx=0;entryDy=0;fillColor=#dae8fc;strokeColor=#6c8ebf;strokeWidth=6;" parent="WIyWlLk6GJQsqaUBKTNV-1" source="LI9GZYLnp5pJ0-7i5mNz-4" target="ePSrSVbJTpR8uSZUfsVL-21" edge="1">
          <mxGeometry relative="1" as="geometry" />
        </mxCell>
        <mxCell id="ePSrSVbJTpR8uSZUfsVL-62" style="edgeStyle=orthogonalEdgeStyle;rounded=0;orthogonalLoop=1;jettySize=auto;html=1;exitX=1;exitY=0.5;exitDx=0;exitDy=0;entryX=0.5;entryY=0;entryDx=0;entryDy=0;strokeWidth=2;fillColor=#dae8fc;strokeColor=#6c8ebf;" parent="WIyWlLk6GJQsqaUBKTNV-1" source="LI9GZYLnp5pJ0-7i5mNz-4" target="LI9GZYLnp5pJ0-7i5mNz-5" edge="1">
          <mxGeometry relative="1" as="geometry">
            <Array as="points">
              <mxPoint x="402" y="698" />
              <mxPoint x="402" y="600" />
              <mxPoint x="584" y="600" />
            </Array>
          </mxGeometry>
        </mxCell>
        <mxCell id="LI9GZYLnp5pJ0-7i5mNz-4" value="&lt;font style=&quot;font-size: 16px;&quot;&gt;Preprocessing &amp;amp; Resampling&lt;/font&gt;" style="ellipse;whiteSpace=wrap;html=1;fillColor=#dae8fc;strokeColor=#6c8ebf;strokeWidth=2;" parent="WIyWlLk6GJQsqaUBKTNV-1" vertex="1">
          <mxGeometry x="139" y="648" width="160" height="100" as="geometry" />
        </mxCell>
        <mxCell id="LI9GZYLnp5pJ0-7i5mNz-5" value="&lt;font style=&quot;font-size: 16px;&quot;&gt;Preprocessing &amp;amp; Resampling&lt;/font&gt;" style="ellipse;whiteSpace=wrap;html=1;fillColor=#e1d5e7;strokeColor=#9673a6;strokeWidth=2;" parent="WIyWlLk6GJQsqaUBKTNV-1" vertex="1">
          <mxGeometry x="504" y="648" width="160" height="100" as="geometry" />
        </mxCell>
        <mxCell id="LI9GZYLnp5pJ0-7i5mNz-10" value="" style="endArrow=classic;html=1;rounded=0;entryX=0;entryY=0;entryDx=0;entryDy=0;fillColor=#f8cecc;strokeColor=#b85450;strokeWidth=2;exitX=0.5;exitY=1;exitDx=0;exitDy=0;edgeStyle=orthogonalEdgeStyle;" parent="WIyWlLk6GJQsqaUBKTNV-1" source="ePSrSVbJTpR8uSZUfsVL-6" target="LI9GZYLnp5pJ0-7i5mNz-4" edge="1">
          <mxGeometry width="50" height="50" relative="1" as="geometry">
            <mxPoint x="390" y="661" as="sourcePoint" />
            <mxPoint x="440" y="611" as="targetPoint" />
          </mxGeometry>
        </mxCell>
        <mxCell id="LI9GZYLnp5pJ0-7i5mNz-15" value="" style="endArrow=classic;html=1;rounded=0;exitX=0.5;exitY=1;exitDx=0;exitDy=0;fillColor=#d5e8d4;strokeColor=#82b366;strokeWidth=2;entryX=1;entryY=0;entryDx=0;entryDy=0;edgeStyle=orthogonalEdgeStyle;" parent="WIyWlLk6GJQsqaUBKTNV-1" source="LI9GZYLnp5pJ0-7i5mNz-7" target="LI9GZYLnp5pJ0-7i5mNz-4" edge="1">
          <mxGeometry width="50" height="50" relative="1" as="geometry">
            <mxPoint x="390" y="661" as="sourcePoint" />
            <mxPoint x="240" y="480" as="targetPoint" />
            <Array as="points">
              <mxPoint x="641" y="560" />
              <mxPoint x="276" y="560" />
            </Array>
          </mxGeometry>
        </mxCell>
        <mxCell id="LI9GZYLnp5pJ0-7i5mNz-17" value="" style="endArrow=classic;html=1;rounded=0;exitX=0.5;exitY=1;exitDx=0;exitDy=0;fillColor=#d5e8d4;strokeColor=#82b366;strokeWidth=2;entryX=1;entryY=0;entryDx=0;entryDy=0;edgeStyle=orthogonalEdgeStyle;" parent="WIyWlLk6GJQsqaUBKTNV-1" source="LI9GZYLnp5pJ0-7i5mNz-7" target="LI9GZYLnp5pJ0-7i5mNz-5" edge="1">
          <mxGeometry width="50" height="50" relative="1" as="geometry">
            <mxPoint x="660" y="301" as="sourcePoint" />
            <mxPoint x="560" y="480" as="targetPoint" />
          </mxGeometry>
        </mxCell>
        <mxCell id="LI9GZYLnp5pJ0-7i5mNz-25" style="edgeStyle=orthogonalEdgeStyle;rounded=0;orthogonalLoop=1;jettySize=auto;html=1;exitX=0.5;exitY=1;exitDx=0;exitDy=0;fillColor=#f5f5f5;strokeColor=#666666;strokeWidth=2;" parent="WIyWlLk6GJQsqaUBKTNV-1" source="LI9GZYLnp5pJ0-7i5mNz-18" edge="1">
          <mxGeometry relative="1" as="geometry">
            <mxPoint x="400" y="1090" as="targetPoint" />
          </mxGeometry>
        </mxCell>
        <mxCell id="LI9GZYLnp5pJ0-7i5mNz-18" value="&lt;font style=&quot;font-size: 16px;&quot;&gt;Soft Voting&lt;/font&gt;&lt;div style=&quot;font-size: 16px;&quot;&gt;&lt;font style=&quot;font-size: 16px;&quot;&gt;(Mean)&lt;/font&gt;&lt;/div&gt;" style="rounded=0;whiteSpace=wrap;html=1;strokeWidth=2;fillColor=#f5f5f5;strokeColor=#666666;gradientColor=#b3b3b3;" parent="WIyWlLk6GJQsqaUBKTNV-1" vertex="1">
          <mxGeometry x="320" y="945" width="160" height="77" as="geometry" />
        </mxCell>
        <mxCell id="LI9GZYLnp5pJ0-7i5mNz-21" value="" style="endArrow=classic;html=1;rounded=0;fillColor=#e1d5e7;strokeColor=#9673a6;strokeWidth=2;entryX=1;entryY=0.5;entryDx=0;entryDy=0;edgeStyle=orthogonalEdgeStyle;exitX=0.5;exitY=1;exitDx=0;exitDy=0;" parent="WIyWlLk6GJQsqaUBKTNV-1" source="ePSrSVbJTpR8uSZUfsVL-22" target="LI9GZYLnp5pJ0-7i5mNz-18" edge="1">
          <mxGeometry width="50" height="50" relative="1" as="geometry">
            <mxPoint x="460" y="770" as="sourcePoint" />
            <mxPoint x="530" y="923" as="targetPoint" />
          </mxGeometry>
        </mxCell>
        <mxCell id="LI9GZYLnp5pJ0-7i5mNz-26" value="&lt;font style=&quot;font-size: 16px;&quot;&gt;Final Prediction&lt;/font&gt;" style="text;html=1;align=center;verticalAlign=middle;whiteSpace=wrap;rounded=0;" parent="WIyWlLk6GJQsqaUBKTNV-1" vertex="1">
          <mxGeometry x="340" y="1098" width="120" height="30" as="geometry" />
        </mxCell>
        <mxCell id="LI9GZYLnp5pJ0-7i5mNz-27" value="&lt;font style=&quot;font-size: 16px;&quot;&gt;Input Layer&lt;/font&gt;" style="text;html=1;align=center;verticalAlign=middle;whiteSpace=wrap;rounded=0;" parent="WIyWlLk6GJQsqaUBKTNV-1" vertex="1">
          <mxGeometry x="-110" y="245" width="110" height="30" as="geometry" />
        </mxCell>
        <mxCell id="LI9GZYLnp5pJ0-7i5mNz-31" value="&lt;font style=&quot;font-size: 16px;&quot;&gt;Lesion Crop&lt;/font&gt;" style="text;html=1;align=center;verticalAlign=middle;whiteSpace=wrap;rounded=0;" parent="WIyWlLk6GJQsqaUBKTNV-1" vertex="1">
          <mxGeometry x="76" y="127" width="100" height="30" as="geometry" />
        </mxCell>
        <mxCell id="ePSrSVbJTpR8uSZUfsVL-57" style="edgeStyle=orthogonalEdgeStyle;rounded=0;orthogonalLoop=1;jettySize=auto;html=1;exitX=0.5;exitY=1;exitDx=0;exitDy=0;entryX=0.5;entryY=0;entryDx=0;entryDy=0;fillColor=#ffe6cc;strokeColor=#d79b00;strokeWidth=2;" parent="WIyWlLk6GJQsqaUBKTNV-1" source="ePSrSVbJTpR8uSZUfsVL-9" target="LI9GZYLnp5pJ0-7i5mNz-4" edge="1">
          <mxGeometry relative="1" as="geometry">
            <Array as="points">
              <mxPoint x="400" y="480" />
              <mxPoint x="219" y="480" />
            </Array>
          </mxGeometry>
        </mxCell>
        <mxCell id="ePSrSVbJTpR8uSZUfsVL-9" value="&lt;font style=&quot;font-size: 16px;&quot;&gt;1 FE:&lt;br&gt;sqrt(min)&lt;/font&gt;" style="rounded=0;whiteSpace=wrap;html=1;fillColor=#ffe6cc;strokeColor=#d79b00;strokeWidth=2;" parent="WIyWlLk6GJQsqaUBKTNV-1" vertex="1">
          <mxGeometry x="317" y="364" width="166" height="80" as="geometry" />
        </mxCell>
        <mxCell id="ePSrSVbJTpR8uSZUfsVL-10" value="" style="endArrow=classic;html=1;rounded=0;entryX=0;entryY=0.5;entryDx=0;entryDy=0;fillColor=#f8cecc;strokeColor=#b85450;strokeWidth=2;exitX=0.5;exitY=1;exitDx=0;exitDy=0;edgeStyle=orthogonalEdgeStyle;" parent="WIyWlLk6GJQsqaUBKTNV-1" source="ePSrSVbJTpR8uSZUfsVL-6" target="ePSrSVbJTpR8uSZUfsVL-9" edge="1">
          <mxGeometry width="50" height="50" relative="1" as="geometry">
            <mxPoint x="172" y="374" as="sourcePoint" />
            <mxPoint x="256" y="658" as="targetPoint" />
          </mxGeometry>
        </mxCell>
        <mxCell id="ePSrSVbJTpR8uSZUfsVL-13" value="" style="strokeWidth=2;html=1;shape=mxgraph.flowchart.annotation_2;align=left;labelPosition=right;pointerEvents=1;" parent="WIyWlLk6GJQsqaUBKTNV-1" vertex="1">
          <mxGeometry y="40" width="50" height="440" as="geometry" />
        </mxCell>
        <mxCell id="ePSrSVbJTpR8uSZUfsVL-14" value="" style="strokeWidth=2;html=1;shape=mxgraph.flowchart.annotation_2;align=left;labelPosition=right;pointerEvents=1;" parent="WIyWlLk6GJQsqaUBKTNV-1" vertex="1">
          <mxGeometry y="600" width="50" height="540" as="geometry" />
        </mxCell>
        <mxCell id="ePSrSVbJTpR8uSZUfsVL-15" value="&lt;font style=&quot;font-size: 16px;&quot;&gt;Prediction Layer&lt;/font&gt;" style="text;html=1;align=center;verticalAlign=middle;whiteSpace=wrap;rounded=0;" parent="WIyWlLk6GJQsqaUBKTNV-1" vertex="1">
          <mxGeometry x="-130" y="855" width="120" height="30" as="geometry" />
        </mxCell>
        <mxCell id="ePSrSVbJTpR8uSZUfsVL-30" value="&lt;font style=&quot;font-size: 16px;&quot;&gt;Metadata&lt;/font&gt;&lt;div style=&quot;font-size: 16px;&quot;&gt;&lt;font style=&quot;font-size: 16px;&quot;&gt;(Original + FE)&lt;/font&gt;&lt;/div&gt;" style="rounded=0;whiteSpace=wrap;html=1;fillColor=#d5e8d4;strokeColor=#82b366;strokeWidth=2;" parent="WIyWlLk6GJQsqaUBKTNV-1" vertex="1">
          <mxGeometry x="575" y="271" width="160" height="80" as="geometry" />
        </mxCell>
        <mxCell id="ePSrSVbJTpR8uSZUfsVL-21" value="&lt;font style=&quot;font-size: 16px;&quot;&gt;LightGBM 1&lt;/font&gt;" style="ellipse;whiteSpace=wrap;html=1;fillColor=#dae8fc;strokeColor=#6c8ebf;strokeWidth=2;" parent="WIyWlLk6GJQsqaUBKTNV-1" vertex="1">
          <mxGeometry x="139" y="791" width="160" height="100" as="geometry" />
        </mxCell>
        <mxCell id="ePSrSVbJTpR8uSZUfsVL-22" value="&lt;font style=&quot;font-size: 16px;&quot;&gt;LightGBM 2&lt;/font&gt;" style="ellipse;whiteSpace=wrap;html=1;fillColor=#e1d5e7;strokeColor=#9673a6;strokeWidth=2;" parent="WIyWlLk6GJQsqaUBKTNV-1" vertex="1">
          <mxGeometry x="504" y="790" width="160" height="100" as="geometry" />
        </mxCell>
        <mxCell id="LI9GZYLnp5pJ0-7i5mNz-7" value="&lt;font style=&quot;font-size: 17px;&quot;&gt;89 Features: Original + FE&lt;/font&gt;" style="rounded=0;whiteSpace=wrap;html=1;fillColor=#d5e8d4;strokeColor=#82b366;strokeWidth=2;" parent="WIyWlLk6GJQsqaUBKTNV-1" vertex="1">
          <mxGeometry x="561" y="284" width="160" height="80" as="geometry" />
        </mxCell>
        <mxCell id="ePSrSVbJTpR8uSZUfsVL-35" value="" style="rounded=0;whiteSpace=wrap;html=1;fillColor=#d5e8d4;strokeColor=#82b366;strokeWidth=2;" parent="WIyWlLk6GJQsqaUBKTNV-1" vertex="1">
          <mxGeometry x="630" y="225" width="160" height="80" as="geometry" />
        </mxCell>
        <mxCell id="ePSrSVbJTpR8uSZUfsVL-39" value="&lt;font style=&quot;font-size: 14px;&quot;&gt;CNN&lt;/font&gt;&lt;div&gt;&lt;font style=&quot;font-size: 14px;&quot;&gt;(ResNet152V2)&lt;/font&gt;&lt;/div&gt;" style="rounded=0;whiteSpace=wrap;html=1;fillColor=#d5e8d4;strokeColor=#82b366;strokeWidth=2;" parent="WIyWlLk6GJQsqaUBKTNV-1" vertex="1">
          <mxGeometry x="575" y="272" width="160" height="80" as="geometry" />
        </mxCell>
        <mxCell id="ePSrSVbJTpR8uSZUfsVL-40" value="&lt;div&gt;&lt;span style=&quot;background-color: initial; font-size: 16px;&quot;&gt;39 Originals&lt;/span&gt;&lt;/div&gt;&lt;div&gt;&lt;span style=&quot;background-color: initial; font-size: 16px;&quot;&gt;+ 50 FE&lt;/span&gt;&lt;br&gt;&lt;/div&gt;" style="rounded=0;whiteSpace=wrap;html=1;fillColor=#d5e8d4;strokeColor=#82b366;strokeWidth=2;" parent="WIyWlLk6GJQsqaUBKTNV-1" vertex="1">
          <mxGeometry x="560" y="285" width="160" height="80" as="geometry" />
        </mxCell>
        <mxCell id="ePSrSVbJTpR8uSZUfsVL-44" value="" style="ellipse;whiteSpace=wrap;html=1;aspect=fixed;fillColor=#82b366;strokeColor=#82B366;" parent="WIyWlLk6GJQsqaUBKTNV-1" vertex="1">
          <mxGeometry x="739" y="259" width="10" height="10" as="geometry" />
        </mxCell>
        <mxCell id="ePSrSVbJTpR8uSZUfsVL-46" value="" style="ellipse;whiteSpace=wrap;html=1;aspect=fixed;fillColor=#82b366;strokeColor=#82B366;" parent="WIyWlLk6GJQsqaUBKTNV-1" vertex="1">
          <mxGeometry x="756" y="245" width="10" height="10" as="geometry" />
        </mxCell>
        <mxCell id="ePSrSVbJTpR8uSZUfsVL-47" value="" style="ellipse;whiteSpace=wrap;html=1;aspect=fixed;fillColor=#82b366;strokeColor=#82B366;" parent="WIyWlLk6GJQsqaUBKTNV-1" vertex="1">
          <mxGeometry x="772" y="233" width="10" height="10" as="geometry" />
        </mxCell>
        <mxCell id="ePSrSVbJTpR8uSZUfsVL-51" value="&lt;font style=&quot;font-size: 16px;&quot;&gt;Image-based Features&lt;/font&gt;" style="text;html=1;align=center;verticalAlign=middle;whiteSpace=wrap;rounded=0;" parent="WIyWlLk6GJQsqaUBKTNV-1" vertex="1">
          <mxGeometry x="76" y="50" width="210" height="30" as="geometry" />
        </mxCell>
        <mxCell id="ePSrSVbJTpR8uSZUfsVL-52" value="&lt;font style=&quot;font-size: 16px;&quot;&gt;Metadata Features&lt;/font&gt;" style="text;html=1;align=center;verticalAlign=middle;whiteSpace=wrap;rounded=0;" parent="WIyWlLk6GJQsqaUBKTNV-1" vertex="1">
          <mxGeometry x="580" y="178" width="210" height="30" as="geometry" />
        </mxCell>
        <mxCell id="ePSrSVbJTpR8uSZUfsVL-63" style="edgeStyle=orthogonalEdgeStyle;rounded=0;orthogonalLoop=1;jettySize=auto;html=1;entryX=0;entryY=0;entryDx=0;entryDy=0;exitX=0.5;exitY=1;exitDx=0;exitDy=0;strokeWidth=2;fillColor=#f8cecc;strokeColor=#b85450;" parent="WIyWlLk6GJQsqaUBKTNV-1" source="ePSrSVbJTpR8uSZUfsVL-6" target="LI9GZYLnp5pJ0-7i5mNz-5" edge="1">
          <mxGeometry relative="1" as="geometry">
            <Array as="points">
              <mxPoint x="162" y="520" />
              <mxPoint x="527" y="520" />
            </Array>
          </mxGeometry>
        </mxCell>
        <mxCell id="ePSrSVbJTpR8uSZUfsVL-66" value="" style="shape=image;verticalLabelPosition=bottom;labelBackgroundColor=default;verticalAlign=top;aspect=fixed;imageAspect=0;image=data:image/jpeg,/9j/4AAQSkZJRgABAQAAAQABAAD/2wBDAAgGBgcGBQgHBwcJCQgKDBQNDAsLDBkSEw8UHRofHh0aHBwgJC4nICIsIxwcKDcpLDAxNDQ0Hyc5PTgyPC4zNDL/2wBDAQkJCQwLDBgNDRgyIRwhMjIyMjIyMjIyMjIyMjIyMjIyMjIyMjIyMjIyMjIyMjIyMjIyMjIyMjIyMjIyMjIyMjL/wAARCAB5AHkDASIAAhEBAxEB/8QAHwAAAQUBAQEBAQEAAAAAAAAAAAECAwQFBgcICQoL/8QAtRAAAgEDAwIEAwUFBAQAAAF9AQIDAAQRBRIhMUEGE1FhByJxFDKBkaEII0KxwRVS0fAkM2JyggkKFhcYGRolJicoKSo0NTY3ODk6Q0RFRkdISUpTVFVWV1hZWmNkZWZnaGlqc3R1dnd4eXqDhIWGh4iJipKTlJWWl5iZmqKjpKWmp6ipqrKztLW2t7i5usLDxMXGx8jJytLT1NXW19jZ2uHi4+Tl5ufo6erx8vP09fb3+Pn6/8QAHwEAAwEBAQEBAQEBAQAAAAAAAAECAwQFBgcICQoL/8QAtREAAgECBAQDBAcFBAQAAQJ3AAECAxEEBSExBhJBUQdhcRMiMoEIFEKRobHBCSMzUvAVYnLRChYkNOEl8RcYGRomJygpKjU2Nzg5OkNERUZHSElKU1RVVldYWVpjZGVmZ2hpanN0dXZ3eHl6goOEhYaHiImKkpOUlZaXmJmaoqOkpaanqKmqsrO0tba3uLm6wsPExcbHyMnK0tPU1dbX2Nna4uPk5ebn6Onq8vP09fb3+Pn6/9oADAMBAAIRAxEAPwBmxuwz/KkCBeepqwwAXOO3Soim4EtnkfKK8077EZj3AcfKajOF4HB9MVZWIj24pqIoYgDef5VVwK/ksUwDj3zToo/LGR39e9Thdq7mOW9KjZX7/lmlcZIBtyzNg1C5YggZ+pqRUL9chaflVOAOQe/amKxVCPjGDj1peE4AJPqal3ht3IpgwM8dvzoGQMxDe/rQoMh4+UepokbDcLn6ipI2Ljc36UwsR7CrADGwU8YbJFSFQwBGFXNNwOQM49fWi4ELqH6Hn1pPJX3/ADqy0YCA449PWk2D0P50rhYu5BOFBoCgA55PpUfnlxmGJmH948UhW4YD50jJ7AZpASFS2CxpGUREYyM8mhIZ8ZM4yB/dqNo5gD5gyvqOv5U0IY8g3AKMnPWp1iGVySzHsacqoyBk4Hr3pQR93ByOpNSUMkLFsDr6DtTDH82SQT6VNjKEjgetRvEudyk/UUCI3Tg4xkd8UwMB8vBYVYCkKc8f1qHym3MRhRmmNDGhDnczHJ7VMFjjU4AP4UABSSBz603H8X8zTuIa4yPl5+g6U1V2nOOfpU6hWUgZ6dRTSedqjp1pXGMcPgHgnPQUb3/ut+VWETueg70mYv79FwJVzI4P3QOwqQoMcdPWo4/vE81Nv2qQBlvrSQmIMDlRn0z2pANuSRk03DhxvGee3ansoycEYHegCB4treepO8csvYigOrYIO7I69qsBlwcDt3NQwxENLESB5bcD2PIoAds3clscdKZtZiQo/GnsQmME46k1G1xxhSOPQ0BZjkRV5J98mkZ8t8vT1xUTuHQ8j6U+MqQCTkYoHYa3POOneo23OBkY+tT7gQRt/OkH3c4x7mmIjVDjDHaO1S7VRCcdKi+YuAvT1qbHPLZ9c0AJuO3px2pu/wBhTtuQM8D1pfLH979KBkwwoAxg98UmCrAfnQXG/Yv4mnEZILflUjYjk9EPHc01AAGDE5PNLKcAsOBjpUaHaCSefSmhWLERw2D+FR7lS+mJ/iVT9OtNRmdiUGTUU6ESSYYljGOfxNDBLUw9S1hlmdUGFXv61nx6nLI2RJyOcCk1SEopPUqelZAykeY+GbrioSN0jsLWdbk/OcEYJ960Yx8vPOK5XT/OVolwcDqa6kENEAP51SZEkSk7xkAYpxUbAcEt6dqjUbcjHBHWnvJkBUXn0pp3IsQ7tr4OD7elSgZG4jmhIs5Y4BqRcA/d4p3AaF8wAkGpfs59/wA6XeFTjH1pMyf3jSuTYBhCdvfkmnBguSfSoJdxwI+PqaEG4BWJ3d6RdhlxKxQsBwBn6VHGrMis27BGQAammZVibnB6fWlO1QAvzHFMLipIVOThU4x700uz3TkAY2ipBGSfnP4dhSQ4Es7D1AyKoky9TsGllBUcd81z0tiIrwAZHfFduU3McDr1JNVLjT4pkOQTjrgdazemxopGFYWxyBu3ZIz+FdKtqoRd3OKjtrIRYZVGPf0q0yE/d70JCbuQ7CzcdAODTi20YiwT3NOYPtACkUvlFFI4+oqiSBQAckksePpVnYCgBNRMP3uOdo7nvU4JI+VfzpAxgXj5eR05pfl9f1pSDyMdKdsi9KLCK/UZVcr3JpFAAOT+IqRACDwOnSlCEsOnFMdypMC5jjxgMc/hUh+VeBzTWYtdnaMlVxn60nDcknH1oGixD84JwT2pkChVkYkszOTjFIjYRuoC80+IrFAgB5x1ouKxMiBgC3OP4RTm25OF+mRUcYzJkd/U1MABk5yKQEcau5Ofu+3SnhAGIGNvYUkpYJuA+UdaI2CAk9fegBSNg3N26CmMd53Ec9qfIQxGc0gKhCTz/WmmAm1Sxz6cikDDYSox6ZFPjU+Xhup6inFVCYx0xzUgRLudskYz0pdg/vU2Q7emetFUgsVIw4X5Jix7lhmmvLPDGzMUb9KkixxyFHrRcMvl5bkFh+NICGDzwg3Q7i3JweacZ0X78bgj2zVgMzIeigfrS5IAAwPenuCRWluopF8vzACSBj0q2RHgBGBxULw+aVOBx14p621seqAk9SOKQ7FiNWZTuyCalLAfdxxVBoXTiKZ0UevNSxrcINxVZFHvg0MTLDMScHsOlMCsoycAnkU1LlGk+ZSjejD+tTh0K7yQB2yetICJt3QfnSIVZs4OB39TSOXn6KUQ9Se9L5gjwqD2poCfbuwSTj0FD4PoB6GmZO3OSDQCACMZoASUb/lX8xTPs/8A00P/AH1TyS4IFN2D/a/OkMz4njchRIBU8ybomVR9Kzrn7341oQf8e3509gFjAKjkk+1P2E8n8qjt/uL+FWOx+lAiJ1YKQpwKZGmGA3c57VN/AfpUMX+tH40ii2y5HA5oJ28ZyT2FKv3ad/y2NMkaCHGXwAe5ojiiVjtTJPQ+9I/3/wARUkf+tFLoAON2dx6GqUjkzKinFXJOrfWs5v8Aj8i+hoAurlo+WxTYyFBJySOopB96lj7/AOe1NDJGfC/L174pm72NIn3Hp9Aj/9k=;imageBorder=#666666;strokeWidth=2;imageBackground=default;" parent="WIyWlLk6GJQsqaUBKTNV-1" vertex="1">
          <mxGeometry x="189" y="99" width="86" height="86" as="geometry" />
        </mxCell>
        <mxCell id="ePSrSVbJTpR8uSZUfsVL-68" value="&lt;font style=&quot;font-size: 16px;&quot;&gt;98 Features&lt;/font&gt;" style="text;html=1;align=center;verticalAlign=middle;whiteSpace=wrap;rounded=0;fillColor=#f5f5f5;gradientColor=#b3b3b3;strokeColor=#666666;" parent="WIyWlLk6GJQsqaUBKTNV-1" vertex="1">
          <mxGeometry x="640" y="50" width="160" height="30" as="geometry" />
        </mxCell>
        <mxCell id="ePSrSVbJTpR8uSZUfsVL-1" value="" style="rounded=0;whiteSpace=wrap;html=1;fillColor=#f8cecc;strokeColor=#b85450;strokeWidth=2;" parent="WIyWlLk6GJQsqaUBKTNV-1" vertex="1">
          <mxGeometry x="152" y="224" width="160" height="80" as="geometry" />
        </mxCell>
        <mxCell id="ePSrSVbJTpR8uSZUfsVL-5" value="&lt;font style=&quot;font-size: 14px;&quot;&gt;CNN&lt;/font&gt;&lt;div&gt;&lt;font style=&quot;font-size: 14px;&quot;&gt;(ResNet152V2)&lt;/font&gt;&lt;/div&gt;" style="rounded=0;whiteSpace=wrap;html=1;fillColor=#f8cecc;strokeColor=#b85450;strokeWidth=2;" parent="WIyWlLk6GJQsqaUBKTNV-1" vertex="1">
          <mxGeometry x="97" y="271" width="160" height="80" as="geometry" />
        </mxCell>
        <mxCell id="ePSrSVbJTpR8uSZUfsVL-6" value="&lt;div&gt;&lt;font style=&quot;font-size: 16px;&quot;&gt;8 CNN&lt;/font&gt;&lt;/div&gt;&lt;div&gt;&lt;font style=&quot;font-size: 16px;&quot;&gt;Predictors&lt;/font&gt;&lt;/div&gt;" style="rounded=0;whiteSpace=wrap;html=1;fillColor=#f8cecc;strokeColor=#b85450;strokeWidth=2;" parent="WIyWlLk6GJQsqaUBKTNV-1" vertex="1">
          <mxGeometry x="82" y="284" width="160" height="80" as="geometry" />
        </mxCell>
        <mxCell id="ePSrSVbJTpR8uSZUfsVL-49" value="" style="ellipse;whiteSpace=wrap;html=1;aspect=fixed;fillColor=#b85450;strokeColor=#b85450;" parent="WIyWlLk6GJQsqaUBKTNV-1" vertex="1">
          <mxGeometry x="279" y="243" width="10" height="10" as="geometry" />
        </mxCell>
        <mxCell id="ePSrSVbJTpR8uSZUfsVL-50" value="" style="ellipse;whiteSpace=wrap;html=1;aspect=fixed;fillColor=#b85450;strokeColor=#b85450;" parent="WIyWlLk6GJQsqaUBKTNV-1" vertex="1">
          <mxGeometry x="295" y="231" width="10" height="10" as="geometry" />
        </mxCell>
        <mxCell id="ePSrSVbJTpR8uSZUfsVL-79" style="edgeStyle=orthogonalEdgeStyle;rounded=0;orthogonalLoop=1;jettySize=auto;html=1;strokeWidth=6;fillColor=#f5f5f5;gradientColor=#b3b3b3;strokeColor=#666666;" parent="WIyWlLk6GJQsqaUBKTNV-1" source="ePSrSVbJTpR8uSZUfsVL-66" edge="1">
          <mxGeometry relative="1" as="geometry">
            <mxPoint x="231.5" y="220" as="targetPoint" />
            <mxPoint x="232" y="187" as="sourcePoint" />
          </mxGeometry>
        </mxCell>
        <mxCell id="ePSrSVbJTpR8uSZUfsVL-83" value="" style="ellipse;whiteSpace=wrap;html=1;aspect=fixed;fillColor=#b85450;strokeColor=#b85450;" parent="WIyWlLk6GJQsqaUBKTNV-1" vertex="1">
          <mxGeometry x="279" y="243" width="10" height="10" as="geometry" />
        </mxCell>
        <mxCell id="ePSrSVbJTpR8uSZUfsVL-84" value="" style="ellipse;whiteSpace=wrap;html=1;aspect=fixed;fillColor=#b85450;strokeColor=#b85450;" parent="WIyWlLk6GJQsqaUBKTNV-1" vertex="1">
          <mxGeometry x="263" y="255" width="10" height="10" as="geometry" />
        </mxCell>
        <mxCell id="JHMwv1TP2H0Nw4-TbRtp-3" style="edgeStyle=orthogonalEdgeStyle;rounded=0;orthogonalLoop=1;jettySize=auto;html=1;exitX=0.5;exitY=1;exitDx=0;exitDy=0;entryX=0.5;entryY=0;entryDx=0;entryDy=0;fillColor=#e1d5e7;strokeColor=#9673a6;strokeWidth=6;" edge="1" parent="WIyWlLk6GJQsqaUBKTNV-1" source="LI9GZYLnp5pJ0-7i5mNz-5" target="ePSrSVbJTpR8uSZUfsVL-22">
          <mxGeometry relative="1" as="geometry">
            <mxPoint x="229" y="758" as="sourcePoint" />
            <mxPoint x="229" y="801" as="targetPoint" />
          </mxGeometry>
        </mxCell>
      </root>
    </mxGraphModel>
  </diagram>
</mxfile>
